<svg xmlns="http://www.w3.org/2000/svg" width="24" height="24" viewBox="0 0 24 24">
    <path fill="#1493C8" fill-rule="nonzero" d="M11.987 3c-.64 0-1.27.067-1.885.198a.5.5 0 1 1-.208-.978c.683-.146 1.383-.22 2.093-.22 5.523 0 10 4.477 10 10s-4.477 10-10 10c-5.328 0-9.712-4.174-9.986-9.474a.5.5 0 0 1 .998-.052C3.246 17.244 7.192 21 11.987 21a9 9 0 0 0 0-18zm-5.078.384a.5.5 0 1 1 .508.86 9.033 9.033 0 0 0-1.521 1.13.5.5 0 1 1-.677-.735 10.033 10.033 0 0 1 1.69-1.255zm-3.671 3.77a.5.5 0 0 1 .874.485 8.943 8.943 0 0 0-.739 1.744.5.5 0 0 1-.957-.29c.205-.675.48-1.324.822-1.939zm13.603 8.992a.5.5 0 0 1-.707.708l-4.647-4.647V7.5a.5.5 0 1 1 1 0v4.293l4.354 4.353z"/>
</svg>
