<svg xmlns="http://www.w3.org/2000/svg" width="24" height="24" viewBox="0 0 24 24">
    <path fill="#1493C8" fill-rule="nonzero" d="M11.684 17.263A5.985 5.985 0 0 0 8 16a5.994 5.994 0 0 0-5.055 2.766.5.5 0 0 1-.842-.54A6.994 6.994 0 0 1 8 15c1.74 0 3.372.64 4.626 1.745-.326.152-.64.325-.942.518zM13 9a3 3 0 1 1 0-6 3 3 0 0 1 0 6zm0-1a2 2 0 1 0 0-4 2 2 0 0 0 0 4zm-5 6a3 3 0 1 1 0-6 3 3 0 0 1 0 6zm0-1a2 2 0 1 0 0-4 2 2 0 0 0 0 4zm8 3a3 3 0 1 1 0-6 3 3 0 0 1 0 6zm0-1a2 2 0 1 0 0-4 2 2 0 0 0 0 4zm5.902 5.234a.5.5 0 1 1-.843.539A5.994 5.994 0 0 0 16 18a5.994 5.994 0 0 0-5.059 2.772.5.5 0 1 1-.842-.539A6.994 6.994 0 0 1 16 17a6.994 6.994 0 0 1 5.902 3.234z"/>
</svg>
