<svg xmlns="http://www.w3.org/2000/svg" width="155" height="30" viewBox="0 0 155 30">
    <path fill="#1ABD5E" fill-rule="evenodd" d="M45.99 2.534h2.847V21.6h-2.846v-8.19h-8.789v8.19h-2.846V2.534h2.846v8.302h8.789V2.534zm12.013 19.343c-3.675 0-6.77-2.684-6.77-6.78 0-4.095 3.095-6.697 6.77-6.697 3.676 0 6.799 2.602 6.799 6.697 0 4.096-3.123 6.78-6.799 6.78zm0-2.574c2.211 0 4.09-1.688 4.09-4.206 0-2.49-1.879-4.15-4.09-4.15-2.21 0-4.062 1.66-4.062 4.15 0 2.518 1.851 4.206 4.062 4.206zM82.594 8.4c3.234 0 4.975 2.131 4.975 5.812V21.6h-2.736v-7.195c0-2.13-1.106-3.376-2.847-3.376-1.852-.027-3.068 1.3-3.233 3.21V21.6h-2.736v-7.222c0-2.131-1.106-3.349-2.709-3.349-1.686 0-3.399 1.024-3.399 3.653V21.6h-2.708V8.677h2.708v2.048c.58-1.439 2.266-2.325 4.035-2.325 1.852 0 3.454.941 4.2 2.602 1.161-2.186 3.179-2.602 4.45-2.602zm20.499 6.67c0 .36-.028.747-.056 1.162h-10.28c.359 2.103 1.907 3.127 4.007 3.127 1.492 0 2.902-.637 3.62-1.827l2.156 1.08c-1.133 2.158-3.455 3.265-5.914 3.265-3.731 0-6.66-2.684-6.66-6.78 0-4.095 2.984-6.697 6.66-6.697 3.675 0 6.467 2.602 6.467 6.67zm-10.309-1.024h7.6c-.248-2.02-1.74-3.127-3.73-3.127s-3.483.996-3.87 3.127zm22.96-12.37h2.708V21.6h-2.708v-1.937c-.857 1.467-2.709 2.214-4.45 2.214-3.51 0-6.411-2.657-6.411-6.752 0-4.123 2.901-6.725 6.384-6.725 1.824 0 3.62.72 4.477 2.187v-8.91zm-4.146 17.627c2.183 0 4.118-1.605 4.118-4.206 0-2.601-2.128-4.123-4.118-4.123-2.21 0-4.007 1.688-4.007 4.123 0 2.408 1.796 4.206 4.007 4.206zm22.38-4.234c0 .36-.028.748-.055 1.163h-10.28c.358 2.103 1.906 3.127 4.006 3.127 1.493 0 2.902-.637 3.62-1.827l2.156 1.08c-1.133 2.158-3.454 3.265-5.914 3.265-3.73 0-6.66-2.684-6.66-6.78 0-4.095 2.985-6.697 6.66-6.697 3.676 0 6.467 2.602 6.467 6.67zm-10.308-1.023h7.6c-.249-2.02-1.741-3.127-3.731-3.127-1.99 0-3.482.996-3.87 3.127zm22.959-5.369h2.708V21.6h-2.708v-1.937c-.857 1.467-2.708 2.214-4.45 2.214-3.51 0-6.411-2.657-6.411-6.752 0-4.123 2.902-6.725 6.384-6.725 1.824 0 3.62.72 4.477 2.187v-1.91zm-4.145 10.626c2.183 0 4.117-1.605 4.117-4.206 0-2.601-2.128-4.123-4.117-4.123-2.211 0-4.008 1.688-4.008 4.123 0 2.408 1.797 4.206 4.008 4.206zm9.65 2.297V1.676h2.709V21.6h-2.709zM4.794 19.2v-2.4c0-1.988 1.61-3.6 3.595-3.6h4.794a1.2 1.2 0 1 0-1.198-1.2H9.588c0-1.988 1.61-3.6 3.595-3.6a3.598 3.598 0 0 1 3.595 3.6c0 1.988-1.61 3.6-3.595 3.6H8.389a1.2 1.2 0 0 0-1.198 1.2v4.8H0V7.096L10.786.004l10.786 7.092V21.6H9.588v-4.768h2.397V19.2h7.19V8.392l-8.389-5.516-8.39 5.516V19.2h2.398z"/>
</svg>
